<svg xmlns="http://www.w3.org/2000/svg" width="384" height="256" viewBox="-192 -128 384 256">
<defs>
  <radialGradient id="b8" cx="40%" cy="40%" r="55%"><stop offset="0%" stop-color="#82d8ff"/><stop offset="60%" stop-color="#0090d0"/><stop offset="100%" stop-color="#004880"/></radialGradient>
  <radialGradient id="lamp8" cx="50%" cy="50%" r="50%"><stop offset="0%" stop-color="#ffffff" stop-opacity="1"/><stop offset="40%" stop-color="#00e5ff" stop-opacity="0.9"/><stop offset="100%" stop-color="#0070c0" stop-opacity="0"/></radialGradient>
  <radialGradient id="hl8" cx="35%" cy="28%" r="38%"><stop offset="0%" stop-color="#ffffff" stop-opacity="0.65"/><stop offset="100%" stop-color="#ffffff" stop-opacity="0"/></radialGradient>
  <filter id="glow8" x="-80%" y="-80%" width="260%" height="260%"><feGaussianBlur stdDeviation="6"/></filter>
</defs>
<!-- 发光灯笼（触角顶端） -->
<line x1="80" y1="-52" x2="110" y2="-90" stroke="#0090d0" stroke-width="2.5"/>
<circle cx="110" cy="-90" r="16" fill="#00e5ff" opacity="0.3" filter="url(#glow8)"/>
<circle cx="110" cy="-90" r="10" fill="url(#lamp8)"/>
<circle cx="110" cy="-90" r="5" fill="#ffffff" opacity="0.9"/>
<!-- 尾鳍 -->
<path d="M-88,0 Q-140,-44 -144,-12 Q-140,0 -144,12 Q-140,44 -88,0" fill="#006aaa" opacity="0.9"/>
<!-- 背鳍 -->
<path d="M-20,-68 Q10,-96 40,-80 Q28,-62 5,-58 Z" fill="#0090d0" opacity="0.85"/>
<!-- 腹鳍 -->
<path d="M0,60 Q20,82 35,65 Q18,56 0,60" fill="#0090d0" opacity="0.8"/>
<!-- 鱼身（深海发光鱼，带生物荧光纹） -->
<ellipse cx="0" cy="0" rx="90" ry="56" fill="url(#b8)"/>
<!-- 荧光条纹 -->
<path d="M-60,-15 Q-20,-20 60,-15" fill="none" stroke="#00e5ff" stroke-width="2" opacity="0.55"/>
<path d="M-60,8 Q-20,14 60,8" fill="none" stroke="#00e5ff" stroke-width="1.5" opacity="0.4"/>
<!-- 鱼身斑点 -->
<circle cx="-30" cy="-5" r="5" fill="#00e5ff" opacity="0.45"/>
<circle cx="10" cy="10" r="4" fill="#00e5ff" opacity="0.4"/>
<circle cx="-55" cy="8" r="3.5" fill="#00e5ff" opacity="0.35"/>
<!-- 高光 -->
<ellipse cx="-5" cy="-12" rx="35" ry="18" fill="url(#hl8)"/>
<!-- 眼（大，发光） -->
<circle cx="68" cy="-12" r="14" fill="#00d4ff" stroke="#004888" stroke-width="1.5"/>
<circle cx="70" cy="-11" r="9" fill="#001830"/>
<circle cx="67" cy="-14" r="4" fill="#00e5ff" opacity="0.8"/>
<circle cx="65" cy="-15" r="2" fill="#ffffff"/>
<!-- 尖嘴（深海鱼特征） -->
<path d="M88,-4 L110,-1 L88,4 Z" fill="#004888"/>
</svg>